<?xml version="1.0" encoding="UTF-8"?>
<!DOCTYPE svg PUBLIC "-//W3C//DTD SVG 1.1//EN" "http://www.w3.org/Graphics/SVG/1.1/DTD/svg11.dtd">
<!-- Creator: CorelDRAW 2018 (64-Bit) -->
<svg xmlns="http://www.w3.org/2000/svg" xml:space="preserve" width="44.3942mm" height="70mm" version="1.1" style="shape-rendering:geometricPrecision; text-rendering:geometricPrecision; image-rendering:optimizeQuality; fill-rule:evenodd; clip-rule:evenodd"
viewBox="0 0 4439.42 7000"
 xmlns:xlink="http://www.w3.org/1999/xlink">
 <defs>
  <style type="text/css">
   <![CDATA[
    .str0 {stroke:#878ECD;stroke-width:20;stroke-miterlimit:22.9256}
    .fil1 {fill:#404B69}
    .fil2 {fill:#404B69}
    .fil0 {fill:#878ECD}
    .fil3 {fill:#A5A5A6}
   ]]>
  </style>
 </defs>
 <g id="Layer_x0020_1">
  <metadata id="CorelCorpID_0Corel-Layer"/>
  <g id="_1981124806592">
   <path class="fil0" d="M4077.69 3283.36c-65.02,-60.61 -22.33,18.28 -50.4,-100.21 -40.72,-171.91 26.9,-97.46 -123.07,-570.66 -89.29,-281.7 127.76,-469.13 -387.52,-844.26 -313.12,-227.95 -204.48,-337.31 -890.68,-276.02 -158.65,14.16 -184.89,-61.36 -356.77,-61.7 -60.64,-0.12 -164.7,17.12 -204.59,17.4 -144.86,1.01 -254.01,-146.87 -801.09,128.35 -160.11,80.55 -326.64,284.9 -337.44,445.83l-35.16 313.39c-35.09,191.04 0.66,154.86 3.41,329.02l793.11 25.03c72.05,8.43 74.63,25.11 96.03,52.92 93.9,37.06 129.12,134.83 186.85,176.78 46.01,33.43 127.71,-13.39 65.2,223.24 -19.26,72.93 -18.11,172.92 -21.04,231.12 -11.08,132.32 -1.12,430.19 -23.36,528.29 -23.07,101.79 -149.06,196.53 -132.23,364.74 14.16,141.72 134.84,209.91 259.24,232.28 103.77,18.65 54.95,62.44 154.28,80.31 75.42,13.57 139.12,-24.63 208.37,-34.94l168.76 -24.98c242.63,305.49 378.41,192.38 562.66,455.32 180.48,257.54 221.71,235.5 469.56,56.59 64.88,-46.85 64.05,-6.7 112.25,-82.37 119.64,-187.78 88.63,-402.8 227.29,-504.69 11.29,-238.25 95.07,-370.45 110.04,-579.86l7.41 -3.05c-32.02,337.03 -7.98,507.2 -96.05,834.06 -32.84,121.87 -158.89,332.42 -242.46,608.49 -72.43,239.26 -228.15,553.5 -302.46,709.05l-1227.6 887.69 -1140.38 -842.13c-79.16,-281.64 -198.42,-465.76 -231.79,-756.4 -13.65,-118.82 -133.4,-431.38 -165.3,-490.67 -206.69,-384.13 -205.13,-818.02 -209.51,-1256.97 -8.66,-172.23 75.65,-697.71 101.49,-877.56 57.75,-402.06 8.27,-465 205.52,-784.52 136.88,-221.74 293.82,-363.61 541.23,-457.35 204.71,-77.56 147.88,-12.06 389.59,-114.72 168.04,-71.36 40.12,53.94 397.56,3.99 245.66,-34.33 346.2,69.12 409.63,79.13 116.17,18.32 29.37,-27.26 184.36,-43.7 144.87,-15.38 478.22,95.29 601.36,160.05 597.96,314.43 628.91,702.03 698.56,1294.29 16.52,140.58 11.49,310.98 25.14,469.4zm-3175.41 -531.08c-133.92,28.8 -92.86,34.86 -171.95,179.25 -2.04,3.73 -13.23,18.13 -26.44,46.16 -16.47,34.99 -18.6,55.08 -23.7,77l12.79 46.73c119.78,0.18 186.83,-27.83 292.27,-52.15 454.84,-104.97 403.85,-4.82 705.22,-47.52 111.79,-15.84 -22.5,4.35 92.17,-35.5 -173.4,-237.61 -99.24,-163.68 -404.56,-196.84 -96.83,-10.51 -157.4,-24.01 -258.92,22.13 -60.35,27.43 32.42,66.31 -114.37,18.75 -45.67,-14.8 -50.95,-31.02 -102.51,-58.01z"/>
   <path class="fil1" d="M509.08 751.5c174.33,-98.08 197.96,-149.14 458.55,-131.42 15.56,60.72 0.97,-0.42 20.5,88.32 38.19,-20.09 -8.19,-45.76 75.27,-69.02 52.47,63.16 58.45,33.56 110.38,111.27 26.87,37.9 68.15,86.74 90.57,122.94 -17.19,-157.57 71.63,-103.44 169.39,-72.55 7.16,-39.43 9.18,-93.25 19.41,-123.78l184.49 -253.5c0.08,-0.07 109.72,-167.06 273.94,-201.37l-144.13 -10.9c-29.1,46.15 -241.73,400.76 -142.2,93.04l68.5 -104.78c-114.37,-6.08 -222.98,-5.06 -306.84,53.96l-152.76 110.51c42.45,-150.99 179.7,-197.24 307.75,-207.63 239.08,-19.42 144.78,40.26 358.89,-48.99 350.11,-145.93 437.21,-65.92 608.09,-74.56 78.56,-3.98 110.5,-26.6 195.88,-31.83 213.63,-13.08 234.86,83.4 346.61,150.31 117.66,70.46 257.13,41.93 396.75,64.03 176.17,27.89 146.84,103.76 209.6,251.75 46.23,109 77.37,46.46 77.45,145.86l-18.13 87.98c-0.05,1.32 1.84,12.91 1.86,10.34l177.08 139.24c62.26,18.81 36.25,-63.85 145.51,78.5 213.83,278.56 225.54,168.21 272.22,292.15 43.88,129 -75.92,103.49 67.27,264.38 61.48,69.08 66.94,129.93 50.42,247.5 -31.36,223.26 -103.74,51.6 -154.55,197.16 -30.59,87.6 51.65,133.31 65.36,242.97 11.45,91.68 -9.09,75.86 -20.86,136.19 -19.1,97.91 -18.03,17.8 20.14,105.57 151.43,348.11 44.22,378.3 36.41,451.85 -4.73,44.6 17.16,181.27 12.17,267.89 -60.8,43.08 -21.65,0.97 -59.22,22.23 -53.02,29.99 -14.62,-0.76 -36.75,36.08 -208.13,346.32 -113.14,129.82 -108.41,400.72l-22.27 204.34c8.86,-22.84 -53.02,151.86 -39.14,59.29l-43.27 -468.18 -3.32 -106c-13.65,-158.42 -8.62,-328.82 -25.14,-469.4 -69.65,-592.26 -100.6,-979.86 -698.56,-1294.29 -123.14,-64.76 -456.49,-175.43 -601.36,-160.05 -154.99,16.44 -68.19,62.02 -184.36,43.7 -63.43,-10.01 -163.97,-113.46 -409.63,-79.13 -357.44,49.95 -229.52,-75.35 -397.56,-3.99 -241.71,102.66 -184.88,37.16 -389.59,114.72 -247.41,93.74 -404.35,235.61 -541.23,457.35 -197.25,319.52 -147.77,382.46 -205.52,784.52 -25.84,179.85 -110.15,705.33 -101.49,877.56 -87.84,58.84 17.96,26.35 -78.85,-311.85 -61.52,-214.9 -78.44,-85.74 -119.82,-219.79 -0.39,-1.28 -11.08,-80.11 -11.22,-81.82 -17.56,-211.75 6.51,-189.63 -65.56,-380.56 -56.48,-149.62 8.58,-205.77 -41.92,-390.49 -35.43,72.56 8.72,145.55 2.94,265.44 -57.5,-82.25 -32.17,-210.75 -86.41,-354.03 -27.5,-72.6 -85.45,-281.53 -122.41,-314.32 5.54,-909.37 296.52,-729.02 440.35,-1057.15 187.72,-92.15 14.89,61.12 68.73,41.72z"/>
   <path class="fil2" d="M2389.69 4630.72l103.72 -5.32c122.81,142.61 209.06,-49.99 221.82,196.49 11.39,79.02 46.4,18.5 31.32,-16.29 -20.95,-24.58 -78.27,-279.86 305.26,300.32l90.2 75.44c81.09,134.29 26.9,239.65 110.78,323.39 128.83,61.13 68.89,382.64 212.8,448.8 27.38,50.42 28.58,36.07 32.24,59.28 -60.8,58.5 -74.75,96.53 -133.94,173.26 -22.95,29.75 -23.4,24.57 -46.94,50.97 -76.55,85.87 -73.95,84.89 -84.4,172.64l-14.76 71.54c-66.21,239.92 -93.08,101.21 -200.66,208.8 -3.56,1.05 -63.95,36.8 -72.98,43.23 -23.44,16.67 -40.05,35.09 -69.91,52.31 -59.91,34.54 -129.73,34.34 -170.2,74.74 -59.5,59.38 -16.73,33.61 -130.91,84.24l-181.52 -39.45c-47.01,31.78 -71.74,58.66 -123.23,94.89l-60.57 -30.81c-84.28,-45.66 -65.8,-41.22 -196.31,-37.7l-143.02 11.34c-129.03,19.9 -407.3,-274.53 -432.2,-314.33 -57.66,-92.2 -109.13,-244.66 -162.54,-348.42 -58.47,-113.58 -161.85,-178.68 -167.11,-326.95l24.2 -123.8c1.23,-2.16 34.73,-80.86 29.65,-212.72 -3.43,-89.04 79.47,-101.28 100.6,-165.56 68.2,-140.18 -48.41,-20.63 -22.12,-204.82 18.58,-130.05 32.09,-90.25 60.39,-139.21 21.9,-37.91 -3.71,-147.87 92.92,-167.46 100.25,-20.32 -42.5,88.14 87.65,18.05 231.64,-124.74 80.25,-166.08 257.36,-277.02 113.07,-70.83 -48.4,-97.2 97.9,-138.04 150.09,31.2 203.56,154.54 312.02,215.35 79.76,-17.52 196.87,-66.12 242.49,-127.18zm620.39 783.63c-74.47,-19.48 -64.94,-86.39 -291.64,-67.04 -154.73,13.21 -443.4,-20.73 -641.99,-5.09 -149.09,11.74 -493.05,4 -596.35,77.81 -221.03,157.95 -43,199.1 -60.2,399.32 127.45,80.27 -18.07,114.54 145.61,153.13 103.5,-73.81 6.89,-124.94 143.51,-153.51 -23.17,-80.33 -55.12,-132.65 -3.82,-209.77 6.4,-9.62 153.21,-13.32 264.39,-64.91 90.83,-42.14 397.1,-11.06 492.57,40.91 267.71,14.58 -10.55,259.9 98.55,391.85 106.6,31.3 214.72,-41.24 202.92,-97.65 -23.82,-113.82 129.8,-90.72 203.67,-175.39 55.91,-64.08 -24.78,-191.41 42.78,-203.7l0 -85.96z"/>
   <path class="fil0" d="M3861.03 2995.78c49.51,40.39 9.47,-10.18 49.43,45.44 23.89,33.27 16.76,14.13 29.12,54.52 21.15,69.11 -0.46,95.13 1.9,136.01 0,0.09 52.8,186.53 -0.92,265.89 -5.02,3.51 -13.76,1.1 -16.3,8.51 -16.03,46.86 -315.54,94.97 -355.78,128.27 -13.58,11.24 -81.48,94 -146.78,120.22 -157.66,63.31 -842.21,95.92 -960.19,-334.57 -148.84,-543.12 -124.73,-664.76 655.87,-725.54 114.8,-8.94 242.6,-39.03 364.32,-24.61 128.44,15.21 100.79,22.72 120.78,50.26l258.55 275.6z"/>
   <path class="fil2" d="M3861.03 2995.78c-35.06,67.64 4.85,71.83 5.74,92.98 1.85,44.58 102.44,85.11 -74.75,37.24 -44.45,-33.49 -70.44,-42.08 -93.65,-80.41 -10.91,-0.79 -388.43,-59.87 -602.32,-42.33 -276.22,22.66 -482.56,128.68 -406.98,220.69l189.37 23.65 262.93 0.91 312.44 96.69c-20.77,-27.24 -59.24,-44.77 -105.25,-61.56l-160.05 -40c166.75,3.23 482.95,54.75 487.92,256.67 -245.41,9.98 -270.88,-116.21 -341.62,-82.79 -47.06,96.14 -73.25,170.4 -201.29,170.22 -141.49,2.06 -168,-27.52 -209.47,-176.48 -17.73,-99.5 -135.04,-56.9 -260.78,-13.15l-143.01 -127.22c43.44,-77.97 93.97,-110.62 157.28,-160.2 -209.06,-193.73 91.27,-311.99 251.51,-349.79 109.46,3.93 528.19,-57.41 309.1,39.01 102.91,3.68 225.11,-19.86 328.02,-16.18 99.35,44.61 136.99,-65.87 198.74,28.2 21.52,32.79 89.77,143.07 96.12,183.85z"/>
   <path class="fil2" d="M680.19 3054.69c5.1,-21.92 7.23,-42.01 23.7,-77 13.21,-28.03 24.4,-42.43 26.44,-46.16 79.09,-144.39 38.03,-150.45 171.95,-179.25 51.56,26.99 56.84,43.21 102.51,58.01 146.79,47.56 54.02,8.68 114.37,-18.75 101.52,-46.14 162.09,-32.64 258.92,-22.13 305.32,33.16 231.16,-40.77 404.56,196.84 -114.67,39.85 19.62,19.66 -92.17,35.5 -301.37,42.7 -250.38,-57.45 -705.22,47.52 -105.44,24.32 -172.49,52.33 -292.27,52.15l-12.79 -46.73z"/>
   <path class="fil2" d="M1751.37 3372.71l46.57 109.03c-128.34,-44.63 -141.37,-87.14 -208.19,-116.59 -77.69,105.1 23.23,185.1 -205.07,192.26 -210.07,6.58 -156.6,-147.34 -171.35,-196.9 -97.11,86.63 -122.67,83.67 -149.77,110.47 -114.66,6.1 -55.73,55.76 -162.5,54.36 18.29,-189.23 109.66,-269.47 375.11,-285.71 -93.75,33.23 -144.64,18.03 -221.15,95.24 209.08,-35.02 53.28,-31.25 427.77,-75.39 -193.48,-44.52 -54.38,-28.15 16.69,-52.49 62.83,-13.13 95.67,2.27 199.82,34.02l52.07 131.7z"/>
   <path class="fil3 str0" d="M844.56 4102.26c0,0 0,0 0,0z"/>
  </g>
 </g>
</svg>
